<svg width="12" height="13" viewBox="0 0 12 13" fill="none" xmlns="http://www.w3.org/2000/svg">
<path d="M9.42857 8.125C8.823 8.125 8.26642 8.32353 7.82705 8.65554L5.08189 7.02917C5.16319 6.68059 5.16319 6.31939 5.08189 5.97081L7.82705 4.34444C8.26642 4.67647 8.823 4.875 9.42857 4.875C10.8487 4.875 12 3.78369 12 2.4375C12 1.09131 10.8487 0 9.42857 0C8.00842 0 6.85714 1.09131 6.85714 2.4375C6.85714 2.61925 6.8783 2.79627 6.91811 2.96667L4.17295 4.59304C3.73358 4.26103 3.177 4.0625 2.57143 4.0625C1.15128 4.0625 0 5.15381 0 6.5C0 7.84619 1.15128 8.9375 2.57143 8.9375C3.177 8.9375 3.73358 8.73897 4.17295 8.40696L6.91811 10.0333C6.87753 10.2071 6.85709 10.3845 6.85714 10.5625C6.85714 11.9087 8.00842 13 9.42857 13C10.8487 13 12 11.9087 12 10.5625C12 9.21631 10.8487 8.125 9.42857 8.125Z" fill="#6B6B74"/>
</svg>
