<svg width="11" height="13" viewBox="0 0 11 13" fill="none" xmlns="http://www.w3.org/2000/svg">
<path d="M1.616 12.128C1.34933 12.128 1.13067 12.0587 0.96 11.92C0.789333 11.7707 0.688 11.5893 0.656 11.376C0.634667 11.152 0.709333 10.928 0.88 10.704L4.544 5.824V6.704L1.056 2.032C0.885333 1.79733 0.810667 1.57333 0.832 1.36C0.853333 1.136 0.949333 0.954666 1.12 0.815999C1.29067 0.666666 1.504 0.591999 1.76 0.591999C1.97333 0.591999 2.16 0.645333 2.32 0.752C2.49067 0.848 2.66133 1.01333 2.832 1.248L5.712 5.216H5.056L7.92 1.248C8.09067 1.01333 8.256 0.848 8.416 0.752C8.58667 0.645333 8.784 0.591999 9.008 0.591999C9.27467 0.591999 9.49333 0.661332 9.664 0.799999C9.83467 0.938666 9.93067 1.12 9.952 1.344C9.97333 1.55733 9.89333 1.78667 9.712 2.032L6.224 6.704V5.824L9.872 10.704C10.0427 10.928 10.1173 11.152 10.096 11.376C10.0747 11.5893 9.97867 11.7707 9.808 11.92C9.63733 12.0587 9.41333 12.128 9.136 12.128C8.93333 12.128 8.74667 12.0747 8.576 11.968C8.416 11.8613 8.24533 11.6907 8.064 11.456L5.024 7.296H5.728L2.704 11.456C2.53333 11.6907 2.36267 11.8613 2.192 11.968C2.02133 12.0747 1.82933 12.128 1.616 12.128Z" fill="#C1C2C5"/>
</svg>
