<svg width="12" height="12" viewBox="0 0 12 12" fill="none" xmlns="http://www.w3.org/2000/svg">
<path d="M6.00134 2.92335C4.29872 2.92335 2.92538 4.297 2.92538 6C2.92538 7.703 4.29872 9.07665 6.00134 9.07665C7.70396 9.07665 9.0773 7.703 9.0773 6C9.0773 4.297 7.70396 2.92335 6.00134 2.92335ZM6.00134 8.00022C4.90106 8.00022 4.00156 7.1032 4.00156 6C4.00156 4.8968 4.89838 3.99978 6.00134 3.99978C7.10429 3.99978 8.00112 4.8968 8.00112 6C8.00112 7.1032 7.10162 8.00022 6.00134 8.00022ZM9.92058 2.7975C9.92058 3.19647 9.59933 3.51512 9.20312 3.51512C8.80424 3.51512 8.48567 3.1938 8.48567 2.7975C8.48567 2.40121 8.80692 2.07988 9.20312 2.07988C9.59933 2.07988 9.92058 2.40121 9.92058 2.7975ZM11.9578 3.52583C11.9123 2.56454 11.6928 1.71304 10.9887 1.01149C10.2873 0.309941 9.43603 0.0903715 8.47496 0.0421734C7.48444 -0.0140578 4.51556 -0.0140578 3.52504 0.0421734C2.56665 0.0876939 1.71534 0.307263 1.01127 1.00881C0.307195 1.71036 0.0903514 2.56187 0.042164 3.52315C-0.0140547 4.51389 -0.0140547 7.48343 0.042164 8.47417C0.0876743 9.43546 0.307195 10.287 1.01127 10.9885C1.71534 11.6901 2.56397 11.9096 3.52504 11.9578C4.51556 12.0141 7.48444 12.0141 8.47496 11.9578C9.43603 11.9123 10.2873 11.6927 10.9887 10.9885C11.6901 10.287 11.9096 9.43546 11.9578 8.47417C12.0141 7.48343 12.0141 4.51657 11.9578 3.52583ZM10.6782 9.53721C10.4694 10.062 10.0651 10.4664 9.53776 10.6779C8.74802 10.9912 6.87407 10.9189 6.00134 10.9189C5.12861 10.9189 3.25198 10.9885 2.46492 10.6779C1.94021 10.469 1.53597 10.0647 1.32448 9.53721C1.01127 8.74729 1.08355 6.87292 1.08355 6C1.08355 5.12708 1.01394 3.25003 1.32448 2.46279C1.5333 1.93797 1.93753 1.53364 2.46492 1.3221C3.25466 1.00881 5.12861 1.08111 6.00134 1.08111C6.87407 1.08111 8.7507 1.01149 9.53776 1.3221C10.0625 1.53096 10.4667 1.93529 10.6782 2.46279C10.9914 3.25271 10.9191 5.12708 10.9191 6C10.9191 6.87292 10.9914 8.74997 10.6782 9.53721Z" fill="#6B6B74"/>
</svg>
