<svg width="11" height="13" viewBox="0 0 11 13" fill="none" xmlns="http://www.w3.org/2000/svg">
<path d="M4.93476 12.7377C0.772578 7.38946 0 6.84056 0 4.875C0 2.1826 2.46242 0 5.5 0C8.53758 0 11 2.1826 11 4.875C11 6.84056 10.2274 7.38946 6.06524 12.7377C5.7921 13.0874 5.20787 13.0874 4.93476 12.7377ZM5.5 6.90625C6.76566 6.90625 7.79167 5.99683 7.79167 4.875C7.79167 3.75317 6.76566 2.84375 5.5 2.84375C4.23434 2.84375 3.20833 3.75317 3.20833 4.875C3.20833 5.99683 4.23434 6.90625 5.5 6.90625Z" fill="#47568B"/>
</svg>
