<svg width="12" height="12" viewBox="0 0 12 12" fill="none" xmlns="http://www.w3.org/2000/svg">
<path d="M8.14277 3.67742C7.79189 1.51694 6.96431 0 6.00121 0C5.03811 0 4.21053 1.51694 3.85965 3.67742H8.14277ZM3.67816 6C3.67816 6.5371 3.7072 7.05242 3.75802 7.54839H8.24198C8.2928 7.05242 8.32184 6.5371 8.32184 6C8.32184 5.4629 8.2928 4.94758 8.24198 4.45161H3.75802C3.7072 4.94758 3.67816 5.4629 3.67816 6ZM11.5354 3.67742C10.8433 2.03468 9.44223 0.764516 7.71204 0.251613C8.30248 1.06935 8.70901 2.30081 8.92196 3.67742H11.5354ZM4.28796 0.251613C2.56019 0.764516 1.15668 2.03468 0.46703 3.67742H3.08046C3.29099 2.30081 3.69752 1.06935 4.28796 0.251613ZM11.7943 4.45161H9.01875C9.06957 4.95968 9.09861 5.47984 9.09861 6C9.09861 6.52016 9.06957 7.04032 9.01875 7.54839H11.7919C11.925 7.05242 12 6.5371 12 6C12 5.4629 11.925 4.94758 11.7943 4.45161ZM2.90381 6C2.90381 5.47984 2.93285 4.95968 2.98367 4.45161H0.208106C0.077435 4.94758 0 5.4629 0 6C0 6.5371 0.077435 7.05242 0.208106 7.54839H2.98125C2.93285 7.04032 2.90381 6.52016 2.90381 6ZM3.85965 8.32258C4.21053 10.4831 5.03811 12 6.00121 12C6.96431 12 7.79189 10.4831 8.14277 8.32258H3.85965ZM7.71446 11.7484C9.44223 11.2355 10.8457 9.96532 11.5378 8.32258H8.92438C8.71143 9.69919 8.3049 10.9306 7.71446 11.7484ZM0.46703 8.32258C1.1591 9.96532 2.56019 11.2355 4.29038 11.7484C3.69994 10.9306 3.29341 9.69919 3.08046 8.32258H0.46703Z" fill="#6B6B74"/>
</svg>
